<?xml version="1.0" standalone="no"?>
<!DOCTYPE svg PUBLIC "-//W3C//DTD SVG 20010904//EN"
 "http://www.w3.org/TR/2001/REC-SVG-20010904/DTD/svg10.dtd">
<svg version="1.0" xmlns="http://www.w3.org/2000/svg"
 width="700.000000pt" height="700.000000pt" viewBox="0 0 700.000000 700.000000"
 preserveAspectRatio="xMidYMid meet">
<metadata>
Created by potrace 1.14, written by Peter Selinger 2001-2017
</metadata>
<g transform="translate(0.000000,700.000000) scale(0.100000,-0.100000)"
fill="#000000" stroke="none">
<path d="M0 3500 l0 -3500 3500 0 3500 0 0 3500 0 3500 -3500 0 -3500 0 0
-3500z m3535 1946 c945 -121 1490 -631 1639 -1536 55 -332 49 -772 -15 -1067
-20 -94 -91 -325 -107 -350 -5 -7 -130 135 -350 398 l-342 411 0 77 c0 316
-63 607 -172 799 -51 89 -157 206 -243 267 -157 112 -439 202 -645 206 -25 0
-52 3 -61 7 -16 7 -679 796 -679 808 0 13 852 -4 975 -20z m-1311 -1317 l396
-477 0 -657 0 -657 308 5 c329 5 414 15 577 63 50 15 99 28 110 30 16 3 72
-59 265 -292 135 -162 253 -306 263 -320 l19 -24 -104 -50 c-189 -90 -428
-159 -678 -196 -97 -14 -228 -18 -852 -21 l-738 -5 0 1558 c0 1523 0 1558 19
1539 10 -11 197 -234 415 -496z"/>
</g>
</svg>
