<?xml version="1.0" standalone="no"?>
<!DOCTYPE svg PUBLIC "-//W3C//DTD SVG 20010904//EN"
 "http://www.w3.org/TR/2001/REC-SVG-20010904/DTD/svg10.dtd">
<svg version="1.0" xmlns="http://www.w3.org/2000/svg"
 width="700.000000pt" height="700.000000pt" viewBox="0 0 700.000000 700.000000"
 preserveAspectRatio="xMidYMid meet">
<metadata>
Created by potrace 1.14, written by Peter Selinger 2001-2017
</metadata>
<g transform="translate(0.000000,700.000000) scale(0.100000,-0.100000)"
fill="#000000" stroke="none">
<path d="M2560 5466 c0 -12 663 -801 679 -808 9 -4 36 -7 61 -7 73 -2 228 -28
325 -56 447 -128 680 -452 725 -1009 5 -71 10 -164 10 -207 l0 -77 342 -411
c220 -263 345 -405 350 -398 16 25 87 256 107 350 64 295 70 735 15 1067 -149
905 -694 1415 -1639 1536 -123 16 -975 33 -975 20z"/>
<path d="M1790 3086 l0 -1558 738 5 c624 3 755 7 852 21 250 37 489 106 678
196 l104 50 -19 24 c-10 14 -128 158 -263 320 -193 233 -249 295 -265 292 -11
-2 -60 -15 -110 -30 -163 -48 -248 -58 -577 -63 l-308 -5 0 657 0 657 -396
477 c-218 262 -405 485 -415 496 -19 19 -19 -16 -19 -1539z"/>
</g>
</svg>
